{"title":"Devious.Maids.S03E08.HDTV.XViD-Sorrow","uid":12145596,"size":383519754,"categoryP":"video","categoryS":"hd___tv_shows","magnet":"?xt=urn:btih:21bce7b112cdc6e15a89fab5572a4767e8601951&amp;dn=Devious.Maids.S03E08.HDTV.XViD-Sorrow&amp;tr=udp%3A%2F%2Ftracker.openbittorrent.com%3A80&amp;tr=udp%3A%2F%2Fopen.demonii.com%3A1337&amp;tr=udp%3A%2F%2Ftracker.coppersurfer.tk%3A6969&amp;tr=udp%3A%2F%2Fexodus.desync.com%3A6969","seeders":1,"leechers":0,"uploader":null,"files":2,"time":1437463899,"description":"Devious Maids S03E08 HDTV XViD-Sorrow\n\nGeneral\nComplete name                            : Devious.Maids.S03E08.HDTV.XViD-Sorrow.avi\nFormat                                   : AVI\nFormat/Info                              : Audio Video Interleave\nFile size                                : 366 MiB\nDuration                                 : 41mn 2s\nOverall bit rate                         : 1 246 Kbps\nWriting application                      : Lavf55.19.104\n\nVideo\nID                                       : 0\nFormat                                   : MPEG-4 Visual\nFormat profile                           : Simple@L3\nFormat settings, BVOP                    : No\nFormat settings, QPel                    : No\nFormat settings, GMC                     : No warppoints\nFormat settings, Matrix                  : Default (H.263)\nCodec ID                                 : XVID\nCodec ID/Hint                            : XviD\nDuration                                 : 41mn 2s\nBit rate                                 : 1 105 Kbps\nWidth                                    : 640 pixels\nHeight                                   : 360 pixels\nDisplay aspect ratio                     : 16:9\nFrame rate                               : 23.976 fps\nColor space                              : YUV\nChroma subsampling                       : 4:2:0\nBit depth                                : 8 bits\nScan type                                : Progressive\nCompression mode                         : Lossy\nBits/(Pixel*Frame)                       : 0.200\nStream size                              : 324 MiB (89%)\nWriting library                          : XviD 64\n\nAudio\nID                                       : 1\nFormat                                   : MPEG Audio\nFormat version                           : Version 1\nFormat profile                           : Layer 3\nMode                                     : Joint stereo\nMode extension                           : MS Stereo\nCodec ID                                 : 55\nCodec ID/Hint                            : MP3\nDuration                                 : 41mn 2s\nBit rate mode                            : Constant\nBit rate                                 : 128 Kbps\nChannel count                            : 2 channels\nSampling rate                            : 48.0 KHz\nCompression mode                         : Lossy\nStream size                              : 37.6 MiB (10%)\nAlignment                                : Aligned on interleaves\nInterleave, duration                     : 24 ms (0.58 video frame)\n\n\nSource:Devious.Maids.S03E08.720p.HDTV.x264-KILLERS","torrent":{"xt":"urn:btih:21bce7b112cdc6e15a89fab5572a4767e8601951","amp;dn":"Devious.Maids.S03E08.HDTV.XViD-Sorrow","amp;tr":["udp%3A%2F%2Ftracker.openbittorrent.com%3A80","udp%3A%2F%2Fopen.demonii.com%3A1337","udp%3A%2F%2Ftracker.coppersurfer.tk%3A6969","udp%3A%2F%2Fexodus.desync.com%3A6969"],"infoHash":"21bce7b112cdc6e15a89fab5572a4767e8601951","infoHashBuffer":{"type":"Buffer","data":[33,188,231,177,18,205,198,225,90,137,250,181,87,42,71,103,232,96,25,81]},"announce":[],"urlList":[]}}